<svg xmlns="http://www.w3.org/2000/svg" xmlns:xlink="http://www.w3.org/1999/xlink" width="200" height="43"><defs><path id="a" d="M21.9 19.3h11.8v20.1A21.3 21.3 0 1 1 37 6.6L33.6 10A16.6 16.6 0 1 0 29 36.7v-5.5a11.8 11.8 0 0 1-19-9.5 11.9 11.9 0 0 1 20.3-8.4l-3.4 3.4a7.1 7.1 0 1 0 1.7 7.4h-6.7v-4.8zM60.5 29V33c-.6.5-1.3.8-2.3 1.2a10.7 10.7 0 0 1-6.8-.2c-1.1-.5-2-1.1-2.8-2-.8-.9-1.4-2-1.8-3.4-.5-1.3-.7-3-.7-4.8 0-2 .3-3.7.7-5a9.3 9.3 0 0 1 2-3.4c.8-.9 1.8-1.5 2.9-1.9 1-.4 2.2-.6 3.5-.6a18.2 18.2 0 0 1 3 .3c.4 0 .8.2 1 .3l1 .5V19h-2.3v-3.3l-1.1-.3h-1.5c-.8 0-1.6 0-2.4.4-.8.3-1.5.8-2.1 1.4-.6.7-1.1 1.6-1.5 2.7-.4 1.1-.6 2.5-.6 4s.2 2.8.5 3.8c.4 1.1.8 2 1.4 2.7.6.8 1.3 1.3 2.2 1.7a7.5 7.5 0 0 0 5.5 0v-3h2.2zm15-7.7c.6.7 1 1.5 1.3 2.5a10.6 10.6 0 0 1 0 6.3 6.2 6.2 0 0 1-3.7 4c-1 .4-2 .6-3.1.6a8 8 0 0 1-3.3-.6 6.4 6.4 0 0 1-3.6-4.2c-.3-1-.4-2-.4-3 0-2.5.6-4.4 1.9-5.8 1.2-1.4 3-2.1 5.4-2.1a8 8 0 0 1 3.2.6c1 .4 1.7 1 2.3 1.7zm-2 10c.9-1 1.3-2.5 1.3-4.4 0-.8-.1-1.5-.3-2.2-.1-.6-.4-1.3-.8-1.8-.4-.6-1-1-1.5-1.4-.6-.3-1.4-.5-2.3-.5-1.5 0-2.7.5-3.5 1.5-.8 1-1.2 2.4-1.2 4.4 0 .7 0 1.4.2 2 .2.8.5 1.4.8 2 .4.5 1 1 1.5 1.3.6.3 1.4.5 2.2.5 1.6 0 2.9-.5 3.7-1.5zm19.6.5l.1.7h2v2h-4l-.3-2.3h-.1a5.8 5.8 0 0 1-5 2.7c-2.3 0-4-.7-5-2-1-1.2-1.6-3.2-1.6-5.9 0-1.2.2-2.3.5-3.3a6.4 6.4 0 0 1 4-4c1-.3 2-.4 3.1-.4a19.2 19.2 0 0 1 2.9.2l.8.3v-4.3H88v-2h4.9v15.9a9.4 9.4 0 0 0 0 1.5l.2.9zM90.5 29v-7c-.4-.3-1-.5-1.5-.6-.5-.2-1.3-.3-2.2-.3a5 5 0 0 0-3.7 1.4c-1 1-1.4 2.4-1.4 4.4 0 .9 0 1.6.2 2.3.2.7.4 1.4.8 1.9.3.5.8.9 1.4 1.2.5.3 1.3.5 2 .5 1.3 0 2.3-.4 3-1a5 5 0 0 0 1.4-2.8zm18-8.5A6 6 0 0 1 110 23c.3 1 .4 2.5.3 4.1H98.7c0 1.9.5 3.2 1.5 4 1 1 2.3 1.4 3.9 1.4.5 0 1 0 1.6-.2a13.5 13.5 0 0 0 2.8-1l.8-.6 1 1.7-1.3.9a9.5 9.5 0 0 1-3.5 1.2l-1.9.1c-1.2 0-2.2-.2-3.1-.5-1-.4-1.7-1-2.4-1.6-.6-.7-1-1.5-1.4-2.5-.3-1-.5-2-.5-3.2 0-1.3.2-2.4.6-3.4.3-1 .8-1.8 1.5-2.5.6-.6 1.4-1.1 2.4-1.5a9.6 9.6 0 0 1 5.7-.2 5 5 0 0 1 2.1 1.3zm-9.7 4.6h9.4a4.6 4.6 0 0 0-1.3-3.1 4 4 0 0 0-3-1.1c-.6 0-1.3 0-1.9.2-.5.1-1 .4-1.5.7-.5.3-.8.8-1.1 1.3-.3.5-.5 1.2-.6 2zm24.6 1.1v-3h8.3v11.2h-3l-.2-2.9a6.9 6.9 0 0 1-6.2 3.2c-6.8 0-10-5-10-10.6 0-5.7 3.1-10.7 10-10.7 4 0 7.4 2 9 6l-3.3 1.3c-1-2.8-3-4-5.7-4-4.4 0-6.3 3.4-6.3 7.2 0 4.1 1.9 7.5 6.3 7.5 3.3 0 5.6-1.8 5.7-5.2h-4.6zm18.4-6.8c1 0 2 .3 2.7 1l-1.7 3c-.5-.3-1-.5-1.6-.5-1.7 0-3.4 1.5-3.4 5.3v6.1h-3.5V19.8h3.5v2.5a4.2 4.2 0 0 1 4-2.8zm8.8 0c4 0 6.3 2.5 6.3 6v9h-3l-.1-2c-1 1.5-3 2.2-4.6 2.2-3 0-5.3-1.7-5.3-4.8 0-3.1 2.5-4.2 5.8-4.2h4c0-2.2-.7-3-3-3a4 4 0 0 0-3.5 2l-2.8-2c1.4-2 3.3-3.2 6.2-3.2zm3.1 9v-.2h-3.8c-1.6 0-2.4.8-2.4 1.8s.8 1.6 2.4 1.6c2.2 0 3.6-1.6 3.8-3.3zm15.2-7V14h3.6v20.7h-3.3L169 33c-1 1.4-2.6 2-4.2 2-4.2 0-6.4-3.5-6.4-7.6 0-4 2.2-7.6 6.3-7.6 1.5 0 3.2.5 4.2 1.7zm-3.3 10.3c2.5 0 3.6-2 3.6-4.4 0-2.5-1.1-4.4-3.6-4.4-2.4 0-3.6 2-3.6 4.4 0 2.4 1.2 4.4 3.6 4.4zm22.3-5l-.1 1.5h-10c.2 2 1.3 3.2 3.6 3.2 1.3 0 2.5-.4 3.5-1.6l2.5 2.2a7.7 7.7 0 0 1-6 2.6c-5 0-7.5-3.6-7.5-7.5 0-3.8 2.3-7.7 7.2-7.7 5.2 0 6.8 4.1 6.8 7.4zm-10.2-1h6.7l-.1-1c-.4-1.5-1.6-2.3-3.2-2.3-2.1 0-3 1.4-3.4 3.2zm14.7-2.2c0 2.2 7.5.9 7.5 6.3 0 3.3-3 4.8-5.8 4.8-3 0-5.4-1.8-6.1-4l2.8-1.3c.4 1 1.2 2.4 3.1 2.4 1.7 0 2.4-1 2.4-1.8 0-2.4-7.3-.8-7.3-6 0-3 2.6-4.5 5.4-4.5 2.5 0 4.5 1.2 5.6 3.2l-2.8 1.5c-.5-1-1.3-1.9-3-1.9-1 0-1.8.6-1.8 1.3z"/></defs><g fill="none" fill-rule="evenodd"><mask id="b" fill="#888" fill-opacity="0.5"><use xlink:href="#a"/></mask><use fill="#999" xlink:href="#a"/><g fill="#FFF" mask="url(#b)"><path d="M.5 0h199v43H.5z"/></g></g></svg>
