<?xml version="1.0" encoding="utf-8"?>
<!-- Generator: Adobe Illustrator 26.2.1, SVG Export Plug-In . SVG Version: 6.00 Build 0)  -->
<svg version="1.1" id="Layer_1" xmlns="http://www.w3.org/2000/svg" xmlns:xlink="http://www.w3.org/1999/xlink" x="0px" y="0px"
	 viewBox="0 0 1083.3 910.27" style="enable-background:new 0 0 1083.3 910.27;" xml:space="preserve">
<style type="text/css">
	.st0{fill:#E8F4EE;}
	.st1{fill:#010101;}
	.st2{fill:#087A91;}
	.st3{fill:#FFFFFF;}
	.st4{fill:none;stroke:#010101;stroke-width:10;stroke-linecap:round;stroke-miterlimit:10;}
	.st5{fill:#ED1C24;}
	.st6{fill:#EEEFF1;stroke:#000000;stroke-width:10;stroke-miterlimit:10;}
	.st7{fill:#4195A5;}
	.st8{fill:#EEEFF1;}
	.st9{fill:none;stroke:#000000;stroke-width:10;stroke-miterlimit:10;}
	.st10{fill:#ED1C24;stroke:#000000;stroke-width:10;stroke-miterlimit:10;}
	.st11{fill:#5EA745;stroke:#000000;stroke-width:10;stroke-miterlimit:10;}
	.st12{fill:#5DA745;}
	.st13{fill:#FFFFFF;stroke:#000000;stroke-width:10;stroke-miterlimit:10;}
	.st14{fill:#6D6E71;stroke:#000000;stroke-width:10;stroke-miterlimit:10;}
	.st15{fill:#6D6E71;}
	.st16{fill:#603913;stroke:#000000;stroke-width:10;stroke-miterlimit:10;}
	.st17{fill:#A97C50;stroke:#000000;stroke-width:10;stroke-miterlimit:10;}
	.st18{fill:none;stroke:#000000;stroke-width:10;stroke-linecap:round;stroke-miterlimit:10;}
	.st19{fill:#00A651;stroke:#010101;stroke-width:10;stroke-miterlimit:10;}
	.st20{fill:none;stroke:#EC008C;stroke-width:10;stroke-miterlimit:10;}
	.st21{fill:#E8F4EE;stroke:#000000;stroke-width:10;stroke-miterlimit:10;}
	.st22{fill:#F7941D;stroke:#010101;stroke-width:10;stroke-miterlimit:10;}
	.st23{fill:#657C89;stroke:#010101;stroke-width:10;stroke-miterlimit:10;}
	.st24{fill:none;stroke:#010101;stroke-width:10;stroke-miterlimit:10;}
	.st25{fill:#E0E674;stroke:#010101;stroke-width:10;stroke-miterlimit:10;}
	.st26{fill:#6562AC;stroke:#010101;stroke-width:10;stroke-miterlimit:10;}
	.st27{fill:#4195A5;stroke:#010101;stroke-width:10;stroke-miterlimit:10;}
	.st28{fill:#F7941D;}
	.st29{fill:#657C89;}
	.st30{fill:#E0E674;}
	.st31{fill:#6562AC;}
	.st32{fill:#FEFEFE;}
	.st33{fill:#D3D9DB;stroke:#000000;stroke-width:10;stroke-miterlimit:10;}
	.st34{fill:#AED2DB;stroke:#000000;stroke-width:10;stroke-miterlimit:10;}
	.st35{fill:#93A2AC;stroke:#000000;stroke-width:10;stroke-miterlimit:10;}
	.st36{fill:none;stroke:#000000;stroke-width:15;stroke-linecap:round;stroke-miterlimit:10;}
	.st37{fill:#D3D8DB;stroke:#000000;stroke-width:15;stroke-miterlimit:10;}
	.st38{fill:#087A91;stroke:#000000;stroke-width:10;stroke-miterlimit:10;}
	.st39{fill:#7FB4C3;stroke:#000000;stroke-width:10;stroke-miterlimit:10;}
	.st40{fill:#265057;stroke:#000000;stroke-width:10;stroke-miterlimit:10;}
	.st41{stroke:#000000;stroke-width:10;stroke-miterlimit:10;}
	.st42{fill:#B4B4D2;stroke:#000000;stroke-width:10;stroke-miterlimit:10;}
	.st43{fill:#7FB4C3;}
	.st44{fill:#93A2AC;}
	.st45{fill:#46B64C;}
	.st46{fill:#D3D8DB;stroke:#000000;stroke-width:10;stroke-miterlimit:10;}
</style>
<g>
	<path class="st21" d="M217.82,441.12c0,0-99.07-393.07,34.82-385.38s20.58,331.52,20.58,331.52s78.52-86.86,193.18-0.86
		c0,0-34.06-213.58,53.34-290.79c64.58-57.05,142.62,125.4-19.97,342.29c0,0,60.4,151.19-66.45,201.76c0,0,155.7-25.85,146.84,20.86
		c-2.89,15.23-61.9,61.61-136.56,40.73c0,0,26.92,137.47-3.89,166.77c-16.13,15.33-45.34-11.7-53.8-86.27l-66.52-0.67
		c0,0,9.41,110.57-32.8,100.17s-15.96-188.82-15.96-188.82s-36.41,42.97-72.54,30.08c-36.13-12.89-4.08-94.38,70.24-101.14
		C268.33,621.37,168.31,551.45,217.82,441.12z"/>
	<ellipse class="st33" cx="364.22" cy="489.64" rx="199.87" ry="167.3"/>
	<path class="st34" d="M445.08,575.79H283.36c-41.89,0-75.84-33.96-75.84-75.84v-20.62c0-41.89,33.96-75.84,75.84-75.84h161.72
		c41.89,0,75.84,33.96,75.84,75.84v20.62C520.93,541.84,486.97,575.79,445.08,575.79z"/>
	<ellipse class="st35" cx="165.54" cy="497.48" rx="22.75" ry="35.21"/>
	<ellipse class="st35" cx="565.29" cy="497.48" rx="22.75" ry="35.21"/>
	<line class="st36" x1="665.25" y1="180.33" x2="535.11" y2="885.47"/>
	<circle class="st37" cx="669.99" cy="160.37" r="19.96"/>
	
		<rect x="634.93" y="228.81" transform="matrix(0.984 0.1781 -0.1781 0.984 80.345 -142.7515)" class="st38" width="400.28" height="294.41"/>
	<g>
		<path class="st3" d="M940.3,330.67c-21.91-49.05-93.71-62.56-141.21-49.63c-70.47,19.18-73.67,87.24-80.3,151.7
			c-0.51,4.97-1.01,10.05,0.15,14.91c1.16,4.86,4.32,9.54,9.06,11.13c1.96,0.66,3.9,0.75,5.78,0.41c6.44-1.18,12.2-7.47,15.7-13.61
			c18.22-32,31.82-11.98,58.29-2.49c3.55,1.27,7.14,2.44,10.76,3.49l11.62-19.22l-16.57-82c-1.32-6.55,0.68-13.32,5.36-18.09
			c4.68-4.78,11.4-6.91,17.98-5.72c8.76,1.59,15.67,8.54,17.19,17.31l6.89,39.71l19.06-34.82c4.29-7.83,13.07-12.02,21.85-10.43
			c6.16,1.12,11.42,5.17,14.05,10.85c2.64,5.68,2.34,12.31-0.78,17.74l-51.08,88.69c33.14-4.97,63.41-28.08,75.89-59.33
			C947.68,372,948.76,349.62,940.3,330.67z"/>
	</g>
	<path class="st33" d="M214.6,612.79l-7.28,38.36l28.3,87.92l0,0c-12.6,46.69,8.98,45.07,41.68,60.53
		c110.65,52.32,166.36-11.29,166.36-11.29c26.51,0,38.3-18.7,22.85-40.24l0,0c0,0,2.53-15.24,10.12-16.66
		c0.77-0.14,1.51-0.4,2.24-0.7l63.67-26.32l-6.45-77.63c0-5.78-3.79-10.88-9.32-12.55l-20.41-6.16c0,0-109.52,74.18-286.39,1.85
		C217.65,608.95,215.06,610.34,214.6,612.79z"/>
	<g>
		<path class="st39" d="M326.12,857.62h-45.28c-6.11,0-11.38-4.29-12.62-10.28l-12.1-58.41c-1.66-8,4.45-15.51,12.62-15.51h66.81
			c7.94,0,13.99,7.11,12.73,14.95l-9.43,58.41C337.84,853.03,332.45,857.62,326.12,857.62z"/>
		<g>
			<path class="st40" d="M348.74,868.43c0-22.65-20.06-41.02-44.8-41.02c-24.74,0-44.8,18.37-44.8,41.02c0,0.48,0.02,0.95,0.04,1.43
				h89.52C348.72,869.38,348.74,868.91,348.74,868.43z"/>
			<path class="st41" d="M350.22,869.85h-1.52c-0.12,3.1-0.6,6.11-1.42,8.99h2.94h-2.94c-0.9,3.16-2.21,6.18-3.87,8.99h6.81
				c4.28,0,7.75-4.03,7.75-8.99C357.97,873.88,354.5,869.85,350.22,869.85z"/>
			<path class="st41" d="M257.66,878.85h2.94c-0.83-2.89-1.31-5.9-1.42-8.99h-1.52c-4.28,0-7.75,4.03-7.75,8.99
				c0,4.97,3.47,8.99,7.75,8.99h6.81c-1.66-2.82-2.96-5.83-3.87-8.99H257.66z"/>
			<path class="st42" d="M260.6,878.85c0.9,3.16,2.21,6.18,3.87,8.99h78.94c1.66-2.82,2.96-5.83,3.87-8.99H260.6z"/>
		</g>
	</g>
	<g>
		<path class="st39" d="M439.83,857.62h-45.28c-6.11,0-11.38-4.29-12.62-10.28l-12.1-58.41c-1.66-8,4.45-15.51,12.62-15.51h66.81
			c7.94,0,13.99,7.11,12.73,14.95l-9.43,58.41C451.55,853.03,446.16,857.62,439.83,857.62z"/>
		<g>
			<path class="st40" d="M462.45,868.43c0-22.65-20.06-41.02-44.8-41.02c-24.74,0-44.8,18.37-44.8,41.02c0,0.48,0.02,0.95,0.04,1.43
				h89.52C462.43,869.38,462.45,868.91,462.45,868.43z"/>
			<path class="st41" d="M463.93,869.85h-1.52c-0.12,3.1-0.6,6.11-1.42,8.99h2.94h-2.94c-0.9,3.16-2.21,6.18-3.87,8.99h6.81
				c4.28,0,7.75-4.03,7.75-8.99C471.68,873.88,468.21,869.85,463.93,869.85z"/>
			<path class="st41" d="M371.37,878.85h2.94c-0.83-2.89-1.31-5.9-1.42-8.99h-1.52c-4.28,0-7.75,4.03-7.75,8.99
				c0,4.97,3.47,8.99,7.75,8.99h6.81c-1.66-2.82-2.96-5.83-3.87-8.99H371.37z"/>
			<path class="st42" d="M374.31,878.85c0.9,3.16,2.21,6.18,3.87,8.99h78.94c1.66-2.82,2.96-5.83,3.87-8.99H374.31z"/>
		</g>
	</g>
	<g>
		<path class="st43" d="M202.87,625.11l3.09,13.19l2.74,11.68l14.87,63.35l2.89,12.32l0.71,3.03l2.2,9.37
			c0.21,0.89,0.75,1.64,1.53,2.13c0.78,0.48,1.7,0.63,2.58,0.42c0.89-0.21,1.64-0.75,2.12-1.53c0.48-0.78,0.63-1.69,0.42-2.58
			l-4.14-17.63l-3.39-14.44l-1.33-5.66l-10.29-43.82l-3.21-13.68l-4.16-17.71c-0.21-0.89-0.75-1.64-1.53-2.13
			c-0.55-0.34-1.17-0.51-1.79-0.51c-0.26,0-0.53,0.03-0.79,0.09c-0.89,0.21-1.64,0.75-2.13,1.53
			C202.81,623.3,202.66,624.22,202.87,625.11z"/>
		<path class="st44" d="M202.78,668.48l-5.14-21.88c-0.11-0.02-0.21-0.04-0.32-0.06c-2.52-0.41-5.07-0.61-7.61-0.61
			c-1.59,0-3.19,0.09-4.78,0.24c-3.59-2.95-8.45-5.47-13.86-7.23c-1.56-0.51-3.16-0.96-4.79-1.33c-3.92-0.89-7.88-1.34-11.61-1.34
			c-3.55,0-6.88,0.4-9.77,1.21c-4.88,1.37-8.03,3.71-8.65,6.43s1.21,6.2,5.03,9.53c0.99,0.87,2.11,1.69,3.3,2.48
			c2.73,1.81,5.93,3.39,9.42,4.67c-2.59,2.49-4.86,5.2-6.82,8.07c-10.13,14.83-11.51,33.83-1.9,48.5
			c11.87,18.12,36.5,23.52,57.51,13.64c2.22-1.04,4.4-2.26,6.52-3.64c2.2-1.44,4.25-3.02,6.15-4.71L202.78,668.48z"/>
		<path d="M215.45,722.46c-1.9,1.69-3.95,3.27-6.15,4.71c-2.12,1.39-4.3,2.6-6.52,3.64c-21.01,9.88-45.63,4.48-57.51-13.64
			c-9.61-14.67-8.23-33.67,1.9-48.5c1.96-2.86,4.23-5.57,6.82-8.07c-3.48-1.27-6.69-2.86-9.42-4.67c-1.19-0.79-2.31-1.61-3.3-2.48
			c-3.81-3.34-5.64-6.81-5.03-9.53s3.77-5.07,8.65-6.43c2.89-0.81,6.22-1.21,9.77-1.21c3.73,0,7.68,0.45,11.61,1.34
			c1.63,0.37,3.23,0.83,4.79,1.33c5.42,1.76,10.27,4.28,13.86,7.23c1.59-0.16,3.18-0.24,4.78-0.24c2.54,0,5.09,0.2,7.61,0.61
			c0.11,0.02,0.22,0.04,0.32,0.06l-2.44-10.39c-2.42-0.23-4.84-0.32-7.27-0.25c-5.42-3.62-12.14-6.44-19.45-8.09
			c-9.36-2.12-18.7-2.12-26.29,0c-8.65,2.42-14.23,7.34-15.71,13.85c-1.48,6.51,1.43,13.35,8.19,19.27c1.14,1,2.37,1.95,3.68,2.86
			c-11.84,17.97-13.18,40.93-1.47,58.81c9.84,15.02,26.65,23.03,44.35,23.03c7.16,0,14.47-1.32,21.52-4.01
			c4.11-1.57,8.14-3.61,12-6.14c1.1-0.72,2.17-1.49,3.21-2.26L215.45,722.46z"/>
		<path d="M245.77,734.2l-6.82-29.07l-11.77-50.14l-1.31-5.57l-6.61-28.15c-1.69-7.2-8.92-11.69-16.13-10
			c-0.12,0.03-0.24,0.07-0.35,0.1c-3.33,0.88-6.16,2.95-7.99,5.89c-1.89,3.05-2.48,6.65-1.66,10.14l2.07,8.82l2.44,10.39l5.14,21.88
			l12.67,53.98l2.54,10.81l1.66,7.06c0.82,3.49,2.95,6.45,6,8.34c0.5,0.31,1.02,0.58,1.54,0.82c1.74,0.79,3.61,1.2,5.5,1.2
			c1.03,0,2.07-0.12,3.09-0.36c3.49-0.82,6.45-2.95,8.34-6C246,741.29,246.59,737.69,245.77,734.2z M235.62,739.07
			c-0.48,0.78-1.24,1.32-2.12,1.53c-0.89,0.21-1.81,0.06-2.58-0.42c-0.78-0.48-1.32-1.24-1.53-2.13l-2.2-9.37l-0.71-3.03
			l-2.89-12.32l-14.87-63.35l-2.74-11.68l-3.09-13.19c-0.21-0.89-0.06-1.81,0.42-2.58c0.48-0.78,1.24-1.32,2.13-1.53
			c0.26-0.06,0.53-0.09,0.79-0.09c0.63,0,1.25,0.17,1.79,0.51c0.78,0.48,1.32,1.24,1.53,2.13l4.16,17.71l3.21,13.68l10.29,43.82
			l1.33,5.66l3.39,14.44l4.14,17.63C236.25,737.38,236.1,738.29,235.62,739.07z"/>
	</g>
	
		<ellipse transform="matrix(0.912 -0.4102 0.4102 0.912 -220.2098 287.4351)" class="st35" cx="559.8" cy="656.94" rx="58.4" ry="43.31"/>
	<circle class="st3" cx="275.56" cy="460.05" r="28.38"/>
	<circle class="st3" cx="247.3" cy="493.03" r="8.92"/>
	<g>
		<g>
			<path class="st3" d="M364.22,755.11c-24.98,0-45.3-20.32-45.3-45.3c0-24.98,20.32-45.3,45.3-45.3c24.98,0,45.3,20.32,45.3,45.3
				C409.52,734.79,389.2,755.11,364.22,755.11z"/>
			<path d="M364.22,669.52c22.26,0,40.3,18.04,40.3,40.3c0,22.26-18.04,40.3-40.3,40.3s-40.3-18.04-40.3-40.3
				C323.93,687.56,341.97,669.52,364.22,669.52 M364.22,659.52c-27.73,0-50.3,22.56-50.3,50.3c0,27.73,22.56,50.3,50.3,50.3
				c27.73,0,50.3-22.56,50.3-50.3C414.52,682.08,391.96,659.52,364.22,659.52L364.22,659.52z"/>
		</g>
		<g>
			<path class="st45" d="M345.74,725.45v-0.17c0-1.73,0.17-3.38,0.43-5.02v-0.17l-0.17-0.09c-1.56-0.61-3.03-1.47-4.5-2.25
				l-0.17-0.09l-0.09,0.17c-0.95,1.91-1.73,3.98-2.42,6.06l-0.09,0.17l0.17,0.09c2.17,0.61,4.33,1.04,6.58,1.21L345.74,725.45z"/>
			<path class="st45" d="M350.24,695.74C350.24,695.69,350.24,695.69,350.24,695.74c-1.3,0-2.51,0.09-3.81,0.17
				c0.17,1.3,0.35,2.51,0.69,3.81C347.99,698.26,349.03,696.87,350.24,695.74z"/>
			<path class="st45" d="M345.74,727.01v-0.17h-0.17c-1.82-0.17-3.73-0.52-5.63-0.95l-0.52-0.09l0.26,0.43
				c1.64,2.51,3.73,4.76,6.15,6.76l0.35,0.35v-0.61C345.91,730.73,345.73,728.74,345.74,727.01L345.74,727.01z"/>
			<path class="st45" d="M354.83,682.15c-2.25,0.78-4.42,1.82-6.41,3.12c1.47,0.26,2.95,0.61,4.42,1.04
				C353.44,684.92,354.05,683.53,354.83,682.15z"/>
			<path class="st45" d="M364.27,680.59c-1.13,0-2.25,0.09-3.29,0.17c1.56,1.04,3.03,2.25,4.42,3.55l1.13,1.04l-1.13,1.13
				c-0.95,0.87-1.91,1.91-2.77,2.95v0.09c0,0-0.17,0.17-0.43,0.52c0.69-0.09,1.39-0.09,2.08-0.09c11,0,19.92,8.92,19.92,19.92
				c0,11-8.92,19.92-19.92,19.92c-3.81,0-7.36-1.04-10.39-2.95c-1.47,0.17-3.03,0.26-4.5,0.26c-0.69,0-1.39,0-2.08-0.09
				c0.09,2.25,0.26,4.59,0.61,7.01c4.68,3.2,10.31,5.02,16.37,5.02c16.2,0,29.27-13.08,29.27-29.27
				C393.54,693.58,380.47,680.59,364.27,680.59z"/>
			<path class="st45" d="M360.37,687.52c0.61-0.69,1.21-1.39,1.82-1.99c-1.39-1.13-2.86-2.25-4.33-3.2
				c-0.95,1.56-1.73,3.2-2.42,4.85c1.3,0.52,2.6,1.04,3.9,1.64C359.85,688.12,360.28,687.6,360.37,687.52z"/>
			<path class="st45" d="M340.54,704.23l0.09,0.17l0.17-0.09c1.39-0.95,2.77-1.91,4.24-2.69l0.17-0.09v-0.17
				c-0.43-1.64-0.78-3.38-0.95-5.11v-0.17h-0.17c-2.17,0.43-4.33,0.95-6.32,1.73l-0.17,0.09l0.09,0.17
				C338.29,700.16,339.33,702.23,340.54,704.23L340.54,704.23z"/>
			<path class="st45" d="M340.19,707l-0.17,0.17c-1.56,1.3-3.03,2.69-4.42,4.24l-0.17,0.17l0.17,0.17c1.56,1.3,3.12,2.51,4.85,3.64
				l0.17,0.09l0.09-0.17c0.78-1.39,1.64-2.69,2.6-3.98l0.09-0.17l-0.09-0.09c-1.04-1.21-2.08-2.42-3.03-3.81L340.19,707L340.19,707z
				"/>
			<path class="st45" d="M351.71,725.54h0.52l-0.43-0.35c-1.56-1.3-2.95-2.77-3.98-4.5v-0.09l-0.35-0.17v0.26
				c-0.17,1.47-0.35,3.03-0.35,4.59v0.17h0.17c0.69,0,1.39,0.09,2.08,0.09H351.71z"/>
			<path class="st45" d="M350.76,693.14c0.35-1.47,0.69-2.86,1.21-4.24c-1.82-0.52-3.73-0.95-5.63-1.21
				c-0.17,1.99-0.17,3.81-0.09,5.72C347.73,693.23,349.2,693.14,350.76,693.14z"/>
			<path class="st45" d="M353.53,693.06c1.3-0.78,2.69-1.47,4.07-1.99c-1.04-0.52-2.08-0.95-3.12-1.3
				C354.14,690.81,353.79,691.93,353.53,693.06L353.53,693.06z"/>
			<path class="st45" d="M339.93,716.79h-0.17c-1.47-0.95-2.95-1.99-4.33-3.12l-0.43-0.35l0.09,0.52c0.35,2.77,1.13,5.54,2.34,8.14
				l0.17,0.43l0.17-0.43c0.61-1.64,1.3-3.29,2.08-4.85L339.93,716.79L339.93,716.79z"/>
			<path class="st45" d="M343.65,689.07c-1.73,1.73-3.29,3.73-4.5,5.8c1.47-0.43,3.03-0.78,4.59-1.13
				C343.65,692.19,343.65,690.63,343.65,689.07z"/>
			<path class="st45" d="M344.52,709.6v-0.52c0.09-1.82,0.35-3.55,0.87-5.2l0.17-0.52l-0.43,0.26c-1.13,0.69-2.25,1.39-3.38,2.17
				l-0.17,0.09l0.26,0.17c0.78,1.04,1.56,2.17,2.42,3.12L344.52,709.6L344.52,709.6z"/>
			<path class="st45" d="M344.78,712.63l-0.09-0.52l-0.26,0.43c-0.78,1.13-1.56,2.34-2.25,3.55l-0.09,0.17l0.17,0.09
				c1.21,0.69,2.51,1.3,3.81,1.91l0.43,0.17l-0.17-0.43C345.56,716.36,345.04,714.45,344.78,712.63L344.78,712.63z"/>
			<path class="st45" d="M339.06,705.62l0.17-0.09l-0.09-0.17c-0.95-1.47-1.73-3.03-2.51-4.59l-0.17-0.43l-0.17,0.52
				c-0.87,2.69-1.3,5.37-1.39,8.23v0.52l0.35-0.35C336.38,707.87,337.68,706.65,339.06,705.62L339.06,705.62z"/>
		</g>
	</g>
</g>
</svg>
