<?xml version="1.0" encoding="UTF-8"?>
<!-- Generator: Adobe Illustrator 27.5.0, SVG Export Plug-In . SVG Version: 6.00 Build 0)  -->
<svg version="1.1" id="Layer_1" xmlns="http://www.w3.org/2000/svg" xmlns:xlink="http://www.w3.org/1999/xlink" x="0px" y="0px" viewBox="0 0 636 244" style="enable-background:new 0 0 636 244;" xml:space="preserve">
<style type="text/css">
	.st0{fill:#4455A5;}
	.st1{fill:#FFFFFF;}
	.st2{fill:#E71D64;}
	.st3{fill:#06262D;}
</style>
<path class="st0" d="M168.2,0c-6.7,16.2-22.7,27.6-41.4,27.6c-18.7,0-34.6-11.4-41.4-27.6H44.8C20.2,0,0,20.2,0,44.8v125.4  c0,24.6,20.2,44.8,44.8,44.8H85c6.4,16.8,22.7,28.8,41.8,28.8s35.4-12,41.8-28.8h85V0H168.2z"/>
<path class="st1" d="M54.8,129.8c0.5,6.2,6.5,11.5,14.6,11.5c8.3,0,13.2-5.4,14.5-7.4l14.5,11.2c-2,4.1-11.5,15.3-29.4,15.3  c-22.8,0-36.8-15.7-36.8-36.1c0-20.3,13.7-36.5,34-36.5c22,0,34,14.1,34,37.7c0,1.3,0,2.8-0.1,4.4L54.8,129.8L54.8,129.8z   M55.5,115.8h22.4c-0.3-5.5-4.4-10.3-11.2-10.3C59.4,105.5,56,110.9,55.5,115.8z"/>
<path class="st1" d="M158.3,153.2c-2,2.2-8.6,7.1-18.7,7.1c-19.9,0-33.9-15-33.9-36.3c0-21.5,12.7-36.4,32.7-36.4  c10.5,0,17,5.3,18.5,7V63.3h22v95.3h-20.6L158.3,153.2L158.3,153.2z M142.6,107.1c-9,0-14.9,7-14.9,17.1c0,10.3,6.1,16.9,14.9,16.9  c9.5,0,14.9-7.6,14.9-16.9C157.5,113.3,151.3,107.1,142.6,107.1z"/>
<path class="st1" d="M213,130.7c0,6.5,3.8,9.9,9.1,9.9c6.1,0,9.5-4.4,9.5-9.9V89.4h22v69.2h-21.5v-7.1c-2.6,4.1-8.7,8.8-17.4,8.8  c-21.6,0-23.7-18.5-23.7-32.6V89.4h22L213,130.7L213,130.7z"/>
<path class="st2" d="M274.2,158.6h-20.6V63.3h22v31.4c1.5-1.7,7.9-7,18.5-7c20,0,32.7,14.9,32.7,36.4c0,21.2-14,36.3-33.9,36.3  c-10.2,0-16.8-4.9-18.7-7.1V158.6z M289.9,141.1c8.8,0,14.9-6.6,14.9-16.9c0-10.2-5.9-17.1-14.9-17.1c-8.7,0-14.9,6.2-14.9,17.1  C275,133.5,280.4,141.1,289.9,141.1z"/>
<path class="st2" d="M335.8,63.3h22v95.3h-22V63.3z"/>
<path class="st2" d="M404.2,87.7c22.3,0,38,15.3,38,36.3c0,20.8-16.1,36.4-38,36.4c-22,0-37.6-15.3-37.6-36.1  C366.7,103.3,382.9,87.7,404.2,87.7z M404.2,141c9.1,0,16-7.1,16-17c0-10.2-7-16.9-16-16.9c-9.1,0-15.6,7-15.6,17.1  C388.7,134.3,395.3,141,404.2,141z"/>
<path class="st2" d="M499.2,136.1l5.8,18.1c-4.6,3.2-11.6,6.2-20.3,6.2c-22,0-37.6-15-37.6-36.3c0-21.2,16.1-36.4,37.5-36.4  c9,0,15.7,2.9,20.6,6.3l-5.9,18.6c-3.8-3.2-8.7-5.1-13.9-5.1c-10.4,0-16.2,7.3-16.2,16.5c0,10.2,6.9,17,17,17  C491.2,141,496.1,138.6,499.2,136.1z"/>
<path class="st2" d="M556.5,121.1l24.1,37.6h-25.9l-19.4-32.3v32.3h-22V63.3h22v53.9l18.7-27.8h24.7L556.5,121.1z"/>
<path class="st2" d="M581.1,148.5l12.4-12c3.7,3.3,8.3,6.1,15.3,6.1c4.2,0,6.2-1.3,6.2-3.8c0-7.9-31.7-4.5-31.7-29.7  c0-13.3,11.6-21.4,26.6-21.4c13.2,0,20.7,6.3,24.8,11.9l-14.2,11.2c-2.1-2.1-6.1-5.4-11.5-5.4c-3.2,0-5,1.3-5,3.4  c0,8.7,31.9,3.7,31.9,28.8c0,14.1-12.4,22.8-28.2,22.8C594.6,160.4,585.2,154,581.1,148.5z"/>
<path d="M275,212.5v-36.3h4v14.4c0.8-1.4,3.8-4.9,9.2-4.9c7.4,0,12.4,5.7,12.4,13.8c0,8-5.3,13.7-12.7,13.7c-5.7,0-8.4-3.8-9.1-4.8  v4.1H275z M278.8,199.6c0,5.5,3.4,10,8.8,10c5,0,8.9-4,8.9-10c0-6-3.7-10.2-8.8-10.2C282.8,189.4,278.8,193.1,278.8,199.6z   M312.9,221.5h-4l3.8-9.2l-10.6-25.8h4.3l8.3,21l8-21h4.2L312.9,221.5z"/>
<path class="st3" d="M362.4,177.3c-0.2-0.3-0.4-0.6-0.8-0.6h-0.5c-0.5,0-0.7,0.3-0.8,0.6l-15.8,34.2c-0.3,0.6,0.1,1.3,0.8,1.3h4.4  c0.8,0,1.3-0.5,1.5-1l2.5-5.5H369l2.5,5.5c0.4,0.7,0.7,1,1.5,1h4.4c0.7,0,1.2-0.6,0.8-1.3L362.4,177.3z M356.1,200.6l5-11.1h0.2  l5.1,11.1H356.1z"/>
<path class="st3" d="M410.7,177.2h-4.6c-0.6,0-0.9,0.5-0.9,0.9v20.9h-0.1l-21.1-22.4h-1.3c-0.5,0-0.9,0.4-0.9,0.9v34.1  c0,0.5,0.5,0.9,0.9,0.9h4.6c0.6,0,0.9-0.5,0.9-0.9v-21.8h0.1l21.2,23.2h1.2c0.5,0,0.9-0.4,0.9-0.9v-34.1  C411.7,177.7,411.3,177.2,410.7,177.2z"/>
<path class="st3" d="M433.5,177.2c-0.2-0.3-0.4-0.6-0.8-0.6h-0.5c-0.5,0-0.7,0.3-0.8,0.6l-15.8,34.2c-0.3,0.6,0.1,1.3,0.8,1.3h4.4  c0.8,0,1.3-0.5,1.5-1l2.5-5.5h15.2l2.5,5.5c0.4,0.7,0.7,1,1.5,1h4.4c0.7,0,1.2-0.6,0.8-1.3L433.5,177.2z M427.2,200.6l5-11.1h0.2  l5.1,11.1H427.2z"/>
<path class="st3" d="M476.8,203.6c-0.3-0.3-0.8-0.4-1.3,0c-2.1,1.8-4.7,2.9-7.8,2.9c-6.5,0-11.4-5.4-11.4-11.7  c0-6.4,4.8-11.9,11.3-11.9c2.9,0,5.6,1.1,7.8,3c0.4,0.4,0.9,0.4,1.3,0l3.1-3.2c0.4-0.4,0.4-1-0.1-1.4c-3.4-3.1-7.1-4.7-12.2-4.7  c-10.1,0-18.3,8.2-18.3,18.3c0,10.1,8.2,18.2,18.3,18.2c4.5,0,8.9-1.6,12.3-4.9c0.4-0.4,0.5-1,0.1-1.4L476.8,203.6z"/>
<path class="st3" d="M500.8,176.7c-10.1,0-18.2,8.2-18.2,18.3c0,10.1,8.1,18.2,18.2,18.2c10.1,0,18.2-8.1,18.2-18.2  C519.1,184.8,510.9,176.7,500.8,176.7z M500.8,206.6c-6.4,0-11.6-5.2-11.6-11.6c0-6.4,5.2-11.7,11.6-11.7c6.4,0,11.7,5.3,11.7,11.7  C512.4,201.4,507.2,206.6,500.8,206.6z"/>
<path class="st3" d="M553.6,177.2H549c-0.6,0-0.9,0.5-0.9,0.9v20.9H548l-21.1-22.4h-1.3c-0.5,0-0.9,0.4-0.9,0.9v34.1  c0,0.5,0.5,0.9,0.9,0.9h4.6c0.6,0,0.9-0.5,0.9-0.9v-21.8h0.1l21.2,23.2h1.2c0.5,0,0.9-0.4,0.9-0.9v-34.1  C554.6,177.7,554.1,177.2,553.6,177.2z"/>
<path class="st3" d="M573.9,177.2h-12c-0.5,0-0.9,0.5-0.9,0.9v33.5c0,0.5,0.4,0.9,0.9,0.9h12c9.8,0,17.8-8,17.8-17.8  C591.7,185.2,583.7,177.2,573.9,177.2z M573.4,206.5h-5.8v-23.2h5.7c6.6,0,11.4,5,11.4,11.6C584.8,201.5,579.9,206.5,573.4,206.5z"/>
<path class="st3" d="M625.6,211.5L610,177.4c-0.2-0.3-0.4-0.6-0.8-0.6h-0.5c-0.5,0-0.7,0.3-0.8,0.6l-15.8,34.1  c-0.3,0.6,0.1,1.3,0.8,1.3h4.4c0.8,0,1.3-0.5,1.5-1l2.5-5.5h15.2l2.5,5.5c0.4,0.7,0.7,1,1.5,1h4.4  C625.5,212.7,625.9,212.2,625.6,211.5z M603.7,200.6l5-11.1h0.2l5.1,11.1H603.7z"/>
<path class="st3" d="M631.9,212.2h0.3c0.1,0,0.2-0.1,0.2-0.2V211h0.6l0.4,1c0,0.1,0.1,0.1,0.2,0.1h0.4c0.1,0,0.2-0.1,0.2-0.2  c-0.2-0.3-0.3-0.6-0.5-0.9c0.3-0.1,0.6-0.4,0.6-0.9c0-0.6-0.5-1-1-1H632c-0.1,0-0.2,0.1-0.2,0.2v2.7  C631.8,212.2,631.8,212.2,631.9,212.2z M632.4,209.7h0.7c0.3,0,0.4,0.2,0.4,0.4c0,0.2-0.2,0.4-0.4,0.4h-0.7V209.7z"/>
<path class="st3" d="M632.8,213.6c1.7,0,3-1.3,3-3c0-1.7-1.4-3-3-3c-1.7,0-3,1.4-3,3C629.9,212.3,631.2,213.6,632.8,213.6z   M632.8,208.2c1.3,0,2.4,1.1,2.4,2.4c0,1.3-1.1,2.4-2.4,2.4c-1.3,0-2.4-1.1-2.4-2.4C630.4,209.3,631.5,208.2,632.8,208.2z"/>
</svg>